<mxfile host="65bd71144e">
    <diagram id="T-CN8IZzgMo2KcJSAETy" name="Page-1">
        <mxGraphModel dx="1183" dy="419" grid="1" gridSize="10" guides="1" tooltips="1" connect="1" arrows="1" fold="1" page="1" pageScale="1" pageWidth="850" pageHeight="1100" math="0" shadow="0">
            <root>
                <mxCell id="0"/>
                <mxCell id="1" parent="0"/>
                <mxCell id="13" value="post request(upload file)" style="edgeStyle=none;html=1;exitX=0.5;exitY=0;exitDx=0;exitDy=0;entryX=0.25;entryY=1;entryDx=0;entryDy=0;entryPerimeter=0;" edge="1" parent="1" source="2" target="8">
                    <mxGeometry relative="1" as="geometry"/>
                </mxCell>
                <mxCell id="2" value="client" style="rounded=0;whiteSpace=wrap;html=1;" parent="1" vertex="1">
                    <mxGeometry x="80" y="230" width="120" height="60" as="geometry"/>
                </mxCell>
                <mxCell id="12" value="query" style="edgeStyle=none;html=1;exitX=1;exitY=0.25;exitDx=0;exitDy=0;entryX=0;entryY=0;entryDx=0;entryDy=30;entryPerimeter=0;" edge="1" parent="1" source="3" target="4">
                    <mxGeometry relative="1" as="geometry"/>
                </mxCell>
                <mxCell id="16" style="edgeStyle=none;html=1;exitX=0;exitY=0.75;exitDx=0;exitDy=0;entryX=1;entryY=0.75;entryDx=0;entryDy=0;" edge="1" parent="1" source="3" target="2">
                    <mxGeometry relative="1" as="geometry"/>
                </mxCell>
                <mxCell id="17" value="result" style="edgeLabel;html=1;align=center;verticalAlign=middle;resizable=0;points=[];" vertex="1" connectable="0" parent="16">
                    <mxGeometry x="0.2641" relative="1" as="geometry">
                        <mxPoint as="offset"/>
                    </mxGeometry>
                </mxCell>
                <mxCell id="3" value="RAG service" style="rounded=0;whiteSpace=wrap;html=1;" parent="1" vertex="1">
                    <mxGeometry x="330" y="230" width="120" height="60" as="geometry"/>
                </mxCell>
                <mxCell id="15" value="result" style="edgeStyle=none;html=1;exitX=0;exitY=0;exitDx=0;exitDy=60;exitPerimeter=0;entryX=1;entryY=0.75;entryDx=0;entryDy=0;" edge="1" parent="1" source="4" target="3">
                    <mxGeometry relative="1" as="geometry"/>
                </mxCell>
                <mxCell id="4" value="vector database" style="shape=cylinder3;whiteSpace=wrap;html=1;boundedLbl=1;backgroundOutline=1;size=15;" parent="1" vertex="1">
                    <mxGeometry x="584" y="215" width="60" height="90" as="geometry"/>
                </mxCell>
                <mxCell id="5" value="" style="endArrow=classic;startArrow=classic;html=1;exitX=1;exitY=0.5;exitDx=0;exitDy=0;entryX=0;entryY=0.5;entryDx=0;entryDy=0;" parent="1" source="2" target="3" edge="1">
                    <mxGeometry width="50" height="50" relative="1" as="geometry">
                        <mxPoint x="370" y="310" as="sourcePoint"/>
                        <mxPoint x="420" y="260" as="targetPoint"/>
                    </mxGeometry>
                </mxCell>
                <mxCell id="7" value="Get request(query)" style="edgeLabel;html=1;align=center;verticalAlign=middle;resizable=0;points=[];" parent="5" vertex="1" connectable="0">
                    <mxGeometry x="-0.1893" y="-1" relative="1" as="geometry">
                        <mxPoint as="offset"/>
                    </mxGeometry>
                </mxCell>
                <mxCell id="6" value="" style="endArrow=classic;startArrow=classic;html=1;exitX=0.5;exitY=0;exitDx=0;exitDy=0;exitPerimeter=0;" parent="1" source="4" target="10" edge="1">
                    <mxGeometry width="50" height="50" relative="1" as="geometry">
                        <mxPoint x="460" y="300" as="sourcePoint"/>
                        <mxPoint x="420" y="260" as="targetPoint"/>
                    </mxGeometry>
                </mxCell>
                <mxCell id="9" style="edgeStyle=none;html=1;exitX=1;exitY=0.5;exitDx=0;exitDy=0;exitPerimeter=0;" edge="1" parent="1" source="8" target="10">
                    <mxGeometry relative="1" as="geometry">
                        <mxPoint x="480" y="100" as="targetPoint"/>
                    </mxGeometry>
                </mxCell>
                <mxCell id="11" value="file" style="edgeLabel;html=1;align=center;verticalAlign=middle;resizable=0;points=[];" vertex="1" connectable="0" parent="9">
                    <mxGeometry x="-0.1471" y="-2" relative="1" as="geometry">
                        <mxPoint y="1" as="offset"/>
                    </mxGeometry>
                </mxCell>
                <mxCell id="8" value="blob storage" style="verticalLabelPosition=bottom;html=1;verticalAlign=top;align=center;strokeColor=none;fillColor=#00BEF2;shape=mxgraph.azure.storage_blob;" vertex="1" parent="1">
                    <mxGeometry x="300" y="80" width="50" height="45" as="geometry"/>
                </mxCell>
                <mxCell id="10" value="process data to vector" style="aspect=fixed;html=1;points=[];align=center;image;fontSize=12;image=img/lib/azure2/compute/Function_Apps.svg;" vertex="1" parent="1">
                    <mxGeometry x="580" y="72.5" width="68" height="60" as="geometry"/>
                </mxCell>
            </root>
        </mxGraphModel>
    </diagram>
</mxfile>